<svg width="30" height="30" viewBox="0 0 30 30" fill="none" xmlns="http://www.w3.org/2000/svg">
<rect width="30" height="30" fill="#31363A"/>
<path d="M19.5833 20.5C20.0695 20.5 20.5358 20.6932 20.8797 21.037C21.2235 21.3808 21.4166 21.8471 21.4166 22.3334C21.4166 22.8196 21.2235 23.2859 20.8797 23.6297C20.5358 23.9736 20.0695 24.1667 19.5833 24.1667C19.0971 24.1667 18.6307 23.9736 18.2869 23.6297C17.9431 23.2859 17.75 22.8196 17.75 22.3334C17.75 21.3159 18.5658 20.5 19.5833 20.5ZM4.91663 5.83337H7.91413L8.77579 7.66671H22.3333C22.5764 7.66671 22.8096 7.76328 22.9815 7.93519C23.1534 8.1071 23.25 8.34026 23.25 8.58337C23.25 8.73921 23.2041 8.89504 23.14 9.04171L19.8583 14.9725C19.5466 15.5317 18.9416 15.9167 18.2541 15.9167H11.425L10.6 17.4109L10.5725 17.5209C10.5725 17.5817 10.5966 17.6399 10.6396 17.6829C10.6826 17.7259 10.7408 17.75 10.8016 17.75H21.4166V19.5834H10.4166C9.9304 19.5834 9.46408 19.3902 9.12026 19.0464C8.77645 18.7026 8.58329 18.2363 8.58329 17.75C8.58329 17.4292 8.66579 17.1267 8.80329 16.87L10.05 14.6242L6.74996 7.66671H4.91663V5.83337ZM10.4166 20.5C10.9029 20.5 11.3692 20.6932 11.713 21.037C12.0568 21.3808 12.25 21.8471 12.25 22.3334C12.25 22.8196 12.0568 23.2859 11.713 23.6297C11.3692 23.9736 10.9029 24.1667 10.4166 24.1667C9.9304 24.1667 9.46408 23.9736 9.12026 23.6297C8.77645 23.2859 8.58329 22.8196 8.58329 22.3334C8.58329 21.3159 9.39913 20.5 10.4166 20.5ZM18.6666 14.0834L21.215 9.50004H9.62829L11.7916 14.0834H18.6666Z" fill="#FFF6D7"/>
</svg>
