<svg width="46" height="46" viewBox="0 0 46 46" fill="none" xmlns="http://www.w3.org/2000/svg">
<path d="M44.8643 1.32136C43.888 0.34503 42.305 0.34503 41.3288 1.32136L23.0928 19.5573L4.85688 1.32136C3.88058 0.34503 2.29766 0.34503 1.32136 1.32136C0.34503 2.29766 0.34503 3.88058 1.32136 4.85688L19.5573 23.0928L1.32141 41.3286C0.34508 42.3051 0.34508 43.8878 1.32141 44.8643C2.29771 45.8406 3.88063 45.8406 4.85693 44.8643L23.0928 26.6283L41.3288 44.8643C42.305 45.8406 43.888 45.8406 44.8643 44.8643C45.8405 43.8878 45.8405 42.3051 44.8643 41.3288L26.6283 23.0928L44.8643 4.85688C45.8405 3.88058 45.8405 2.29766 44.8643 1.32136Z" fill="#FFF6D7"/>
</svg>
