<svg width="40" height="40" viewBox="0 0 40 40" fill="none" xmlns="http://www.w3.org/2000/svg">
<path d="M34.1006 0H5.89644C2.6534 0 0 2.6534 0 5.89644V34.1036C0 37.3466 2.6534 40 5.89644 40H34.1036C37.3466 40 40 37.3466 40 34.1036V5.89644C39.9971 2.6534 37.3466 0 34.1006 0ZM33.7218 21.3495H28.9751V38.5229H21.8729V21.3495H18.3202V15.4295H21.8729V11.8769C21.8729 7.04772 23.8776 4.17468 29.5825 4.17468H34.3247V10.0932H31.3588C29.1417 10.0932 28.9943 10.9232 28.9943 12.4666L28.9751 15.4295H34.3483L33.7218 21.3495Z" fill="#FFF6D7"/>
</svg>
