<svg width="16" height="16" viewBox="0 0 16 16" fill="none" xmlns="http://www.w3.org/2000/svg">
<g clip-path="url(#clip0_66_112)">
<path d="M15.2865 16H0.7135C0.32 15.999 0.001 15.68 0 15.2865V0.7135C0.001 0.32 0.32 0.001 0.7135 0H15.2863C15.68 0.001 15.999 0.31975 16 0.7135V15.2863C15.999 15.68 15.6802 15.999 15.2865 16Z" fill="#C47B56"/>
<path d="M7.80249 13.75C10.9781 13.75 13.5525 11.1756 13.5525 8C13.5525 4.82436 10.9781 2.25 7.80249 2.25C4.62685 2.25 2.05249 4.82436 2.05249 8C2.05249 11.1756 4.62685 13.75 7.80249 13.75Z" fill="#303030"/>
<path d="M8 14.448C11.5611 14.448 14.448 11.5611 14.448 8C14.448 4.43887 11.5611 1.552 8 1.552C4.43887 1.552 1.552 4.43887 1.552 8C1.552 11.5611 4.43887 14.448 8 14.448Z" fill="black"/>
<path d="M8 13.75C11.1756 13.75 13.75 11.1756 13.75 8C13.75 4.82436 11.1756 2.25 8 2.25C4.82436 2.25 2.25 4.82436 2.25 8C2.25 11.1756 4.82436 13.75 8 13.75Z" fill="black"/>
<path d="M7.99997 13.8515C4.76822 13.8522 2.14772 11.2332 2.14697 8.0015C2.14622 4.76975 4.76522 2.14925 7.99697 2.1485C11.2287 2.14775 13.8492 4.76675 13.85 7.9985C13.85 7.999 13.85 7.9995 13.85 8C13.8465 11.2295 11.2295 13.847 7.99997 13.8515ZM7.99997 2.35C4.87872 2.34925 2.34772 4.87875 2.34697 8C2.34622 11.1212 4.87572 13.6522 7.99697 13.653C11.1182 13.6537 13.6492 11.1242 13.65 8.003C13.65 8.002 13.65 8.001 13.65 8C13.6457 4.88125 11.1187 2.35425 7.99997 2.35Z" fill="#999999"/>
<path d="M8.00005 10.1375C9.18056 10.1375 10.1375 9.18051 10.1375 8C10.1375 6.81949 9.18056 5.8625 8.00005 5.8625C6.81954 5.8625 5.86255 6.81949 5.86255 8C5.86255 9.18051 6.81954 10.1375 8.00005 10.1375Z" fill="#E21B1B"/>
<path d="M1.26255 1.42775C1.42023 1.42775 1.54805 1.29993 1.54805 1.14225C1.54805 0.984573 1.42023 0.85675 1.26255 0.85675C1.10487 0.85675 0.977051 0.984573 0.977051 1.14225C0.977051 1.29993 1.10487 1.42775 1.26255 1.42775Z" fill="black"/>
<path d="M2.05174 1.42775C2.20941 1.42775 2.33724 1.29993 2.33724 1.14225C2.33724 0.984573 2.20941 0.85675 2.05174 0.85675C1.89406 0.85675 1.76624 0.984573 1.76624 1.14225C1.76624 1.29993 1.89406 1.42775 2.05174 1.42775Z" fill="#AAAAAA"/>
<path d="M2.84068 1.42775C2.99835 1.42775 3.12618 1.29993 3.12618 1.14225C3.12618 0.984573 2.99835 0.85675 2.84068 0.85675C2.683 0.85675 2.55518 0.984573 2.55518 1.14225C2.55518 1.29993 2.683 1.42775 2.84068 1.42775Z" fill="#AAAAAA"/>
<path d="M1.26646 14.1005C1.42413 14.1005 1.55196 13.9727 1.55196 13.815C1.55196 13.6573 1.42413 13.5295 1.26646 13.5295C1.10878 13.5295 0.980957 13.6573 0.980957 13.815C0.980957 13.9727 1.10878 14.1005 1.26646 14.1005Z" fill="#E21B1B"/>
<path d="M2.34104 14.1005C2.49872 14.1005 2.62654 13.9727 2.62654 13.815C2.62654 13.6573 2.49872 13.5295 2.34104 13.5295C2.18336 13.5295 2.05554 13.6573 2.05554 13.815C2.05554 13.9727 2.18336 14.1005 2.34104 14.1005Z" fill="#AAAAAA"/>
<path d="M3.26445 14.469H0.981201V14.7487H3.26445V14.469Z" fill="black"/>
<path d="M10.9765 11.4745L10.4742 11.147L13.264 6.86825V1.66925H13.864V7.0465L10.9765 11.4745Z" fill="#AAAAAA"/>
<path d="M12.4087 9.27975L10.6294 12.0055L10.0442 10.8295L11.0964 9.2175L12.4087 9.27975Z" fill="#AAAAAA"/>
<path d="M10 11.9767L10.179 12.3363L13.4135 7.37725V2H13.1135V7.199L10 11.9767Z" fill="#CCCBCA"/>
<path d="M13.565 3.18275C14.2071 3.18275 14.7277 2.66217 14.7277 2.02C14.7277 1.37783 14.2071 0.857254 13.565 0.857254C12.9228 0.857254 12.4022 1.37783 12.4022 2.02C12.4022 2.66217 12.9228 3.18275 13.565 3.18275Z" fill="#AAAAAA"/>
<path d="M13.565 2.65775C13.9172 2.65775 14.2027 2.37222 14.2027 2.02C14.2027 1.66778 13.9172 1.38225 13.565 1.38225C13.2128 1.38225 12.9272 1.66778 12.9272 2.02C12.9272 2.37222 13.2128 2.65775 13.565 2.65775Z" fill="black"/>
</g>
<defs>
<clipPath id="clip0_66_112">
<rect width="16" height="16" fill="white"/>
</clipPath>
</defs>
</svg>
