<svg width="40" height="40" viewBox="0 0 40 40" fill="none" xmlns="http://www.w3.org/2000/svg">
<path d="M35.5556 0H4.44444C2 0 0 2 0 4.44444V35.5556C0 38.0022 2 40 4.44444 40H35.5556C38 40 40 38.0022 40 35.5556V4.44444C40 2 38 0 35.5556 0ZM19.9644 32.2733C23.2286 32.2727 26.3588 30.9757 28.6667 28.6674C30.9746 26.3591 32.2711 23.2286 32.2711 19.9644C32.2711 19.2133 32.1756 18.4889 32.0422 17.7778H35.5556V33.8133C35.5556 34.0153 35.5157 34.2152 35.4382 34.4017C35.3607 34.5881 35.2472 34.7575 35.1041 34.8999C34.961 35.0424 34.7912 35.1552 34.6044 35.2319C34.4176 35.3085 34.2175 35.3475 34.0156 35.3467H5.98445C5.78252 35.3475 5.58242 35.3085 5.39562 35.2319C5.20881 35.1552 5.03899 35.0424 4.8959 34.8999C4.75281 34.7575 4.63927 34.5881 4.5618 34.4017C4.48432 34.2152 4.44444 34.0153 4.44444 33.8133V17.7778H7.88667C7.75111 18.4889 7.65556 19.2133 7.65556 19.9644C7.65615 23.2288 8.95316 26.3593 11.2614 28.6675C13.5696 30.9757 16.7001 32.2727 19.9644 32.2733ZM12.2733 19.9644C12.2733 18.9544 12.4723 17.9543 12.8588 17.0212C13.2453 16.0881 13.8118 15.2402 14.526 14.526C15.2402 13.8118 16.0881 13.2453 17.0212 12.8588C17.9543 12.4723 18.9544 12.2733 19.9644 12.2733C20.9745 12.2733 21.9746 12.4723 22.9077 12.8588C23.8408 13.2453 24.6887 13.8118 25.4029 14.526C26.1171 15.2402 26.6836 16.0881 27.0701 17.0212C27.4566 17.9543 27.6556 18.9544 27.6556 19.9644C27.6556 22.0043 26.8452 23.9605 25.4029 25.4029C23.9605 26.8452 22.0043 27.6556 19.9644 27.6556C17.9246 27.6556 15.9684 26.8452 14.526 25.4029C13.0836 23.9605 12.2733 22.0043 12.2733 19.9644ZM34.0156 11.1111H30.4267C30.0192 11.1099 29.6287 10.9475 29.3406 10.6594C29.0525 10.3713 28.8901 9.98082 28.8889 9.57333V5.98C28.8889 5.13111 29.5778 4.44444 30.4244 4.44444H34.0133C34.8667 4.44444 35.5556 5.13111 35.5556 5.98V9.57111C35.5556 10.4178 34.8667 11.1111 34.0156 11.1111Z" fill="#FFF6D7"/>
</svg>
