<svg width="48" height="48" viewBox="0 0 48 48" fill="none" xmlns="http://www.w3.org/2000/svg">
<path fill-rule="evenodd" clip-rule="evenodd" d="M6.16053 0H41.8382C45.2273 0 48 2.77151 48 6.16053V41.8382C48 45.2273 45.2273 48 41.8382 48H6.16053C2.77151 48 0 45.2273 0 41.8382V6.16053C0 2.77151 2.77151 0 6.16053 0ZM34.9652 5.33204C33.777 5.33204 32.8043 6.30472 32.8043 7.49298V12.6656C32.8043 13.8539 33.7769 14.8266 34.9652 14.8266H40.391C41.5793 14.8266 42.552 13.854 42.552 12.6656V7.49298C42.552 6.30472 41.5794 5.33204 40.391 5.33204H34.9652ZM42.5742 20.2981H38.3496C38.7491 21.6035 38.9648 22.9851 38.9648 24.4173C38.9648 32.4012 32.2851 38.8734 24.0445 38.8734C15.8051 38.8734 9.12535 32.4012 9.12535 24.4173C9.12535 22.9852 9.34093 21.6036 9.74062 20.2981H5.33317V40.5739C5.33317 41.6239 6.19097 42.4828 7.24105 42.4828H40.6664C41.7153 42.4828 42.5743 41.6238 42.5743 40.5739V20.2981H42.5742ZM24.0446 14.5547C18.7208 14.5547 14.4047 18.7371 14.4047 23.8957C14.4047 29.0544 18.7208 33.2368 24.0446 33.2368C29.3695 33.2368 33.6856 29.0544 33.6856 23.8957C33.6856 18.7371 29.3695 14.5547 24.0446 14.5547Z" fill="#EBE9DA"/>
</svg>
