<svg width="30" height="30" viewBox="0 0 30 30" fill="none" xmlns="http://www.w3.org/2000/svg">
<rect width="30" height="30" fill="#31363A"/>
<g clip-path="url(#clip0_75_218)">
<path d="M15.0064 24.989C14.4462 24.989 13.9311 24.8323 13.4718 24.5233C10.9434 23.2634 4 18.5049 4 12.6068C4 8.56092 7.29249 5.26843 11.3383 5.26843C12.6369 5.26843 13.8925 5.60755 15.0064 6.2536C16.1204 5.60755 17.3781 5.26843 18.6745 5.26843C22.7204 5.26843 26.0129 8.56092 26.0129 12.6068C26.0129 18.5049 19.0695 23.2655 16.5411 24.5233C16.0818 24.8323 15.5666 24.989 15.0064 24.989ZM11.3383 7.10355C8.30341 7.10355 5.83512 9.57185 5.83512 12.6068C5.83512 15.1223 7.56507 17.4403 9.016 18.9406C10.864 20.8509 13.0404 22.2717 14.3411 22.9071L14.472 22.9865C14.7961 23.2183 15.2146 23.2183 15.5387 22.9865L15.6697 22.9071C16.9725 22.2696 19.1489 20.8509 20.9947 18.9406C22.4457 17.4403 24.1756 15.1244 24.1756 12.6068C24.1756 9.57185 21.7073 7.10355 18.6724 7.10355C17.5434 7.10355 16.4574 7.44697 15.528 8.09302L15.0064 8.46004L14.4806 8.09302C13.5534 7.44482 12.4652 7.10355 11.3383 7.10355Z" fill="#FFF6D7"/>
</g>
<defs>
<clipPath id="clip0_75_218">
<rect width="22" height="22" fill="white" transform="translate(4 4)"/>
</clipPath>
</defs>
</svg>
