<svg width="48" height="48" viewBox="0 0 48 48" fill="none" xmlns="http://www.w3.org/2000/svg">
<path d="M44.25 0H3.75C1.67812 0 0 1.67812 0 3.75V44.25C0 46.3219 1.67812 48 3.75 48H44.25C46.3219 48 48 46.3219 48 44.25V3.75C48 1.67812 46.3219 0 44.25 0ZM45.1875 44.25C45.1875 44.7656 44.7656 45.1875 44.25 45.1875H3.75C3.23438 45.1875 2.8125 44.7656 2.8125 44.25V3.75C2.8125 3.23438 3.23438 2.8125 3.75 2.8125H44.25C44.7656 2.8125 45.1875 3.23438 45.1875 3.75V44.25Z" fill="#EBE9DA"/>
<path d="M23.9998 11.9344C17.3717 11.9344 11.9998 17.3063 11.9998 23.9344C11.9998 28.8469 14.9529 33.0656 19.1811 34.9219C19.1436 34.0875 19.1717 33.075 19.3873 32.1656C19.6217 31.1906 20.9342 25.6313 20.9342 25.6313C20.9342 25.6313 20.5498 24.8625 20.5498 23.7375C20.5498 21.9563 21.5811 20.6344 22.8654 20.6344C23.9529 20.6344 24.4873 21.45 24.4873 22.4344C24.4873 23.5313 23.7842 25.1719 23.4279 26.6906C23.1279 27.9656 24.0654 28.9969 25.3217 28.9969C27.5998 28.9969 29.1279 26.0813 29.1279 22.6219C29.1279 19.9969 27.3561 18.0281 24.1311 18.0281C20.4936 18.0281 18.2248 20.7375 18.2248 23.775C18.2248 24.825 18.5342 25.5563 19.0123 26.1281C19.2373 26.3906 19.2654 26.4938 19.1811 26.7938C19.1248 27.0094 18.9936 27.5438 18.9373 27.7594C18.8529 28.0594 18.6092 28.1719 18.3373 28.0594C16.6592 27.375 15.8811 25.5375 15.8811 23.475C15.8811 20.0625 18.7592 15.975 24.4592 15.975C29.0436 15.975 32.0529 19.2938 32.0529 22.8469C32.0529 27.5531 29.4373 31.0688 25.5748 31.0688C24.2811 31.0688 23.0623 30.3656 22.6404 29.5781C22.6404 29.5781 21.9467 32.3438 21.7967 32.8781C21.5436 33.8063 21.0467 34.725 20.5873 35.4469C21.6654 35.7656 22.8092 35.9438 23.9904 35.9438C30.6186 35.9438 35.9904 30.5719 35.9904 23.9438C35.9998 17.3063 30.6279 11.9344 23.9998 11.9344Z" fill="#EBE9DA"/>
</svg>
