<svg width="34" height="34" viewBox="0 0 34 34" fill="none" xmlns="http://www.w3.org/2000/svg">
<path fill-rule="evenodd" clip-rule="evenodd" d="M22.9872 13.1356C22.9872 18.5766 18.5765 22.9873 13.1355 22.9873C7.69462 22.9873 3.28388 18.5766 3.28388 13.1356C3.28388 7.69467 7.69462 3.2839 13.1355 3.2839C18.5765 3.2839 22.9872 7.69467 22.9872 13.1356ZM21.1905 23.5125C18.966 25.2416 16.1709 26.2712 13.1355 26.2712C5.88097 26.2712 0 20.3902 0 13.1356C0 5.88101 5.88097 0 13.1355 0C20.3901 0 26.2711 5.88101 26.2711 13.1356C26.2711 16.171 25.2414 18.9661 23.5124 21.1904L34 31.6781L31.6779 34L21.1905 23.5125Z" fill="#31363A"/>
</svg>
